<svg width="474" height="338" viewBox="0 0 474 338" fill="none" xmlns="http://www.w3.org/2000/svg">
<path d="M463.317 53.129C457.897 32.4383 441.864 16.1156 421.464 10.5215C384.579 0.48267 236.589 0.482666 236.589 0.482666C236.589 0.482666 88.6738 0.48267 51.7138 10.5215C31.3896 16.039 15.3561 32.3616 9.86101 53.129C0 90.6787 0 169.073 0 169.073C0 169.073 0 247.468 9.86101 285.018C15.2808 305.709 31.3144 322.031 51.7138 327.625C88.6738 337.664 236.589 337.664 236.589 337.664C236.589 337.664 384.579 337.664 421.464 327.625C441.788 322.108 457.822 305.785 463.317 285.018C473.178 247.468 473.178 169.073 473.178 169.073C473.178 169.073 473.178 90.6787 463.317 53.129Z" fill="#FF0000"/>
<path d="M131.733 105.852C131.733 124.745 153.848 134.985 168.256 122.762V122.762C178.695 113.906 178.695 97.7978 168.256 88.9409V88.9409C153.848 76.7183 131.733 86.9582 131.733 105.852V105.852Z" fill="white"/>
<path d="M282.281 105.852C282.281 124.745 304.397 134.985 318.804 122.762V122.762C329.244 113.906 329.244 97.7978 318.804 88.9409V88.9409C304.397 76.7183 282.281 86.9582 282.281 105.852V105.852Z" fill="white"/>
<rect width="282.356" height="29.7576" transform="matrix(0.992404 -0.123018 0.11876 0.992923 93.8738 232.493)" fill="white"/>
</svg>
