<svg width="24" height="24" viewBox="0 0 24 24" fill="none" xmlns="http://www.w3.org/2000/svg">
<path d="M17.5301 11.2C17.3001 10.9 17.0301 10.64 16.7701 10.38C16.1201 9.78 15.3701 9.35 14.7401 8.72C13.2801 7.26 12.9601 4.85 13.8901 3C12.9901 3.23 12.1401 3.75 11.4401 4.32C8.90009 6.4 7.90009 10.07 9.10009 13.22C9.14009 13.32 9.18009 13.42 9.18009 13.55C9.18009 13.77 9.03009 13.97 8.83009 14.05C8.61009 14.15 8.37009 14.09 8.19009 13.93C8.13009 13.88 8.09009 13.83 8.04009 13.76C6.94009 12.33 6.76009 10.28 7.51009 8.64C5.87009 10 5.00009 12.3 5.12009 14.47C5.16009 14.97 5.22009 15.47 5.39009 15.97C5.53009 16.57 5.79009 17.17 6.11009 17.7C7.15009 19.43 8.98009 20.67 10.9501 20.92C13.0501 21.19 15.3001 20.8 16.9101 19.32C18.7101 17.66 19.3601 15.02 18.4101 12.72L18.2801 12.46C18.0801 12.01 17.8101 11.59 17.5001 11.21L17.5301 11.2ZM14.4301 17.5C14.1501 17.74 13.7001 18 13.3501 18.1C12.2501 18.48 11.1501 17.94 10.4701 17.28C11.6701 17 12.3701 16.12 12.5701 15.23C12.7401 14.43 12.4301 13.77 12.3001 13C12.1801 12.26 12.2001 11.63 12.5001 10.94C12.6501 11.32 12.8501 11.7 13.0801 12C13.8401 13 15.0301 13.44 15.2801 14.8C15.3201 14.94 15.3401 15.08 15.3401 15.23C15.3701 16.05 15.0201 16.95 14.4201 17.49L14.4301 17.5Z" fill="#606060"/>
</svg>
