<svg width="24" height="24" viewBox="0 0 24 24" fill="none" xmlns="http://www.w3.org/2000/svg">
<path d="M18.3999 5.60002V18.4H5.5999V5.60002H18.3999ZM18.3999 3.80002H5.5999C5.12251 3.80002 4.66467 3.98966 4.32711 4.32723C3.98954 4.66479 3.7999 5.12263 3.7999 5.60002V18.4C3.78629 18.6447 3.82277 18.8895 3.90711 19.1196C3.99146 19.3497 4.12188 19.5601 4.2904 19.738C4.45893 19.9158 4.66199 20.0574 4.88716 20.1541C5.11233 20.2507 5.35486 20.3004 5.5999 20.3H18.3999C18.6532 20.3145 18.9067 20.2753 19.1438 20.185C19.3809 20.0946 19.5962 19.9552 19.7756 19.7758C19.955 19.5963 20.0945 19.381 20.1849 19.1439C20.2752 18.9068 20.3144 18.6533 20.2999 18.4V5.60002C20.3003 5.35499 20.2506 5.11245 20.154 4.88728C20.0573 4.66211 19.9157 4.45905 19.7378 4.29053C19.56 4.122 19.3495 3.99158 19.1195 3.90723C18.8894 3.82289 18.6446 3.78641 18.3999 3.80002V3.80002Z" fill="#606060"/>
<path d="M10.2 9V15.5L15.2 12.3L10.2 9.1V9Z" fill="#606060"/>
</svg>
