<svg xmlns="http://www.w3.org/2000/svg" viewBox="0 0 270 270" width="270" height="270" style="width: 100%; height: 100%; " preserveAspectRatio="xMidYMid meet"><defs><clipPath id="__lottie_element_41"><rect width="270" height="270" x="0" y="0"></rect></clipPath><clipPath id="__lottie_element_43"><path d="M0,0 L120,0 L120,120 L0,120z"></path></clipPath><clipPath id="__lottie_element_57"><path d="M0,0 L128,0 L128,128 L0,128z"></path></clipPath></defs><g clip-path="url(#__lottie_element_41)"><g clip-path="url(#__lottie_element_57)" style="display: none;" transform="matrix(2.7880001068115234,0,0,2.7880001068115234,-48.0780029296875,-51.58800506591797)" opacity="1"><g style="display: block;" transform="matrix(0.4056888222694397,0.10870399326086044,-0.10870399326086044,0.4056888222694397,63.819969177246094,55.32201385498047)" opacity="1"><g opacity="1" transform="matrix(1,0,0,1,0,0)"><path stroke-linecap="round" stroke-linejoin="miter" fill-opacity="0" stroke-miterlimit="4" stroke="rgb(255,78,69)" stroke-opacity="1" stroke-width="5" d="M0 0"></path></g></g><g style="display: block;" transform="matrix(0.6260144710540771,0.13306348025798798,-0.13306348025798798,0.6260144710540771,63.75,70.5)" opacity="1"><g opacity="1" transform="matrix(1,0,0,1,0,0)"><path stroke-linecap="round" stroke-linejoin="miter" fill-opacity="0" stroke-miterlimit="4" stroke="rgb(195,252,193)" stroke-opacity="1" stroke-width="3" d="M0 0"></path></g></g><g style="display: none;" transform="matrix(1,0,0,1,91,46.25)" opacity="0.0006816648578084994"><g opacity="1" transform="matrix(0.17499999701976776,-0.30310890078544617,0.30310890078544617,0.17499999701976776,-5.455959796905518,-3.1499998569488525)"><path fill="rgb(180,123,255)" fill-opacity="1" d=" M0,-3 C1.6556999683380127,-3 3,-1.6556999683380127 3,0 C3,1.6556999683380127 1.6556999683380127,3 0,3 C-1.6556999683380127,3 -3,1.6556999683380127 -3,0 C-3,-1.6556999683380127 -1.6556999683380127,-3 0,-3z"></path></g><g opacity="1" transform="matrix(-0.17499999701976776,-0.30310890078544617,0.30310890078544617,-0.17499999701976776,-5.455959796905518,3.1499998569488525)"><path fill="rgb(180,123,255)" fill-opacity="1" d=" M0,-3 C1.6556999683380127,-3 3,-1.6556999683380127 3,0 C3,1.6556999683380127 1.6556999683380127,3 0,3 C-1.6556999683380127,3 -3,1.6556999683380127 -3,0 C-3,-1.6556999683380127 -1.6556999683380127,-3 0,-3z"></path></g><g opacity="1" transform="matrix(-0.3499999940395355,0,0,-0.3499999940395355,0,6.299999713897705)"><path fill="rgb(180,123,255)" fill-opacity="1" d=" M0,-3 C1.6556999683380127,-3 3,-1.6556999683380127 3,0 C3,1.6556999683380127 1.6556999683380127,3 0,3 C-1.6556999683380127,3 -3,1.6556999683380127 -3,0 C-3,-1.6556999683380127 -1.6556999683380127,-3 0,-3z"></path></g><g opacity="1" transform="matrix(-0.17499999701976776,0.30310890078544617,-0.30310890078544617,-0.17499999701976776,5.455959796905518,3.1499998569488525)"><path fill="rgb(180,123,255)" fill-opacity="1" d=" M0,-3 C1.6556999683380127,-3 3,-1.6556999683380127 3,0 C3,1.6556999683380127 1.6556999683380127,3 0,3 C-1.6556999683380127,3 -3,1.6556999683380127 -3,0 C-3,-1.6556999683380127 -1.6556999683380127,-3 0,-3z"></path></g><g opacity="1" transform="matrix(0.17499999701976776,0.30310890078544617,-0.30310890078544617,0.17499999701976776,5.455959796905518,-3.1499998569488525)"><path fill="rgb(180,123,255)" fill-opacity="1" d=" M0,-3 C1.6556999683380127,-3 3,-1.6556999683380127 3,0 C3,1.6556999683380127 1.6556999683380127,3 0,3 C-1.6556999683380127,3 -3,1.6556999683380127 -3,0 C-3,-1.6556999683380127 -1.6556999683380127,-3 0,-3z"></path></g><g opacity="1" transform="matrix(0.3499999940395355,0,0,0.3499999940395355,0,-6.299999713897705)"><path fill="rgb(180,123,255)" fill-opacity="1" d=" M0,-3 C1.6556999683380127,-3 3,-1.6556999683380127 3,0 C3,1.6556999683380127 1.6556999683380127,3 0,3 C-1.6556999683380127,3 -3,1.6556999683380127 -3,0 C-3,-1.6556999683380127 -1.6556999683380127,-3 0,-3z"></path></g></g><g style="display: block;" transform="matrix(0.6156615018844604,0.7880107760429382,-0.7880107760429382,0.6156615018844604,60.8013916015625,70.60517120361328)" opacity="1"><g opacity="1" transform="matrix(1,0,0,1,0,0)"><path stroke-linecap="round" stroke-linejoin="miter" fill-opacity="0" stroke-miterlimit="4" stroke="rgb(195,252,193)" stroke-opacity="1" stroke-width="4" d="M0 0"></path></g></g><g style="display: block;" transform="matrix(-0.3420201539993286,0.9396926164627075,-0.9396926164627075,-0.3420201539993286,57.86277770996094,63.6497688293457)" opacity="1"><g opacity="1" transform="matrix(1,0,0,1,0,0)"><path stroke-linecap="round" stroke-linejoin="miter" fill-opacity="0" stroke-miterlimit="4" stroke="rgb(255,78,69)" stroke-opacity="1" stroke-width="4" d="M0 0"></path></g></g><g style="display: none;" transform="matrix(1,0,0,1,39.875,92.75)" opacity="0.0001731604327235914"><g opacity="1" transform="matrix(0.17499561607837677,-0.3031013011932373,0.3031013011932373,0.17499561607837677,-5.4558234214782715,-3.149921178817749)"><path fill="rgb(195,252,193)" fill-opacity="1" d=" M0,-3 C1.6556999683380127,-3 3,-1.6556999683380127 3,0 C3,1.6556999683380127 1.6556999683380127,3 0,3 C-1.6556999683380127,3 -3,1.6556999683380127 -3,0 C-3,-1.6556999683380127 -1.6556999683380127,-3 0,-3z"></path></g><g opacity="1" transform="matrix(-0.17499561607837677,-0.3031013011932373,0.3031013011932373,-0.17499561607837677,-5.4558234214782715,3.149921178817749)"><path fill="rgb(195,252,193)" fill-opacity="1" d=" M0,-3 C1.6556999683380127,-3 3,-1.6556999683380127 3,0 C3,1.6556999683380127 1.6556999683380127,3 0,3 C-1.6556999683380127,3 -3,1.6556999683380127 -3,0 C-3,-1.6556999683380127 -1.6556999683380127,-3 0,-3z"></path></g><g opacity="1" transform="matrix(-0.34999123215675354,0,0,-0.34999123215675354,0,6.299842357635498)"><path fill="rgb(195,252,193)" fill-opacity="1" d=" M0,-3 C1.6556999683380127,-3 3,-1.6556999683380127 3,0 C3,1.6556999683380127 1.6556999683380127,3 0,3 C-1.6556999683380127,3 -3,1.6556999683380127 -3,0 C-3,-1.6556999683380127 -1.6556999683380127,-3 0,-3z"></path></g><g opacity="1" transform="matrix(-0.17499561607837677,0.3031013011932373,-0.3031013011932373,-0.17499561607837677,5.4558234214782715,3.149921178817749)"><path fill="rgb(195,252,193)" fill-opacity="1" d=" M0,-3 C1.6556999683380127,-3 3,-1.6556999683380127 3,0 C3,1.6556999683380127 1.6556999683380127,3 0,3 C-1.6556999683380127,3 -3,1.6556999683380127 -3,0 C-3,-1.6556999683380127 -1.6556999683380127,-3 0,-3z"></path></g><g opacity="1" transform="matrix(0.17499561607837677,0.3031013011932373,-0.3031013011932373,0.17499561607837677,5.4558234214782715,-3.149921178817749)"><path fill="rgb(195,252,193)" fill-opacity="1" d=" M0,-3 C1.6556999683380127,-3 3,-1.6556999683380127 3,0 C3,1.6556999683380127 1.6556999683380127,3 0,3 C-1.6556999683380127,3 -3,1.6556999683380127 -3,0 C-3,-1.6556999683380127 -1.6556999683380127,-3 0,-3z"></path></g><g opacity="1" transform="matrix(0.34999123215675354,0,0,0.34999123215675354,0,-6.299842357635498)"><path fill="rgb(195,252,193)" fill-opacity="1" d=" M0,-3 C1.6556999683380127,-3 3,-1.6556999683380127 3,0 C3,1.6556999683380127 1.6556999683380127,3 0,3 C-1.6556999683380127,3 -3,1.6556999683380127 -3,0 C-3,-1.6556999683380127 -1.6556999683380127,-3 0,-3z"></path></g></g><g style="display: block;" transform="matrix(-0.882947564125061,-0.4694715738296509,0.4694715738296509,-0.882947564125061,54.99470138549805,66.93231201171875)" opacity="1"><g opacity="1" transform="matrix(1,0,0,1,0,0)"><path stroke-linecap="round" stroke-linejoin="miter" fill-opacity="0" stroke-miterlimit="4" stroke="rgb(180,123,255)" stroke-opacity="1" stroke-width="4" d="M0 0"></path></g></g><g style="display: block;" transform="matrix(-0.24192190170288086,-0.9702957272529602,0.9702957272529602,-0.24192190170288086,65.31019592285156,68.61397552490234)" opacity="1"><g opacity="1" transform="matrix(1,0,0,1,-1,0)"><path stroke-linecap="round" stroke-linejoin="miter" fill-opacity="0" stroke-miterlimit="4" stroke="rgb(195,252,193)" stroke-opacity="1" stroke-width="3" d="M0 0"></path></g></g><g style="display: none;" transform="matrix(1,0,0,1,36.0620002746582,47.1879997253418)" opacity="0.0001731604327235914"><g opacity="1" transform="matrix(0.2681155502796173,-0.22497566044330597,0.22497566044330597,0.2681155502796173,-4.499513149261475,-5.362310886383057)"><path fill="rgb(255,78,69)" fill-opacity="1" d=" M0,-3 C1.6556999683380127,-3 3,-1.6556999683380127 3,0 C3,1.6556999683380127 1.6556999683380127,3 0,3 C-1.6556999683380127,3 -3,1.6556999683380127 -3,0 C-3,-1.6556999683380127 -1.6556999683380127,-3 0,-3z"></path></g><g opacity="1" transform="matrix(0.060776859521865845,-0.3446826934814453,0.3446826934814453,0.060776859521865845,-6.8936543464660645,-1.215537190437317)"><path fill="rgb(255,78,69)" fill-opacity="1" d=" M0,-3 C1.6556999683380127,-3 3,-1.6556999683380127 3,0 C3,1.6556999683380127 1.6556999683380127,3 0,3 C-1.6556999683380127,3 -3,1.6556999683380127 -3,0 C-3,-1.6556999683380127 -1.6556999683380127,-3 0,-3z"></path></g><g opacity="1" transform="matrix(-0.17499999701976776,-0.30310890078544617,0.30310890078544617,-0.17499999701976776,-6.062177658081055,3.5)"><path fill="rgb(255,78,69)" fill-opacity="1" d=" M0,-3 C1.6556999683380127,-3 3,-1.6556999683380127 3,0 C3,1.6556999683380127 1.6556999683380127,3 0,3 C-1.6556999683380127,3 -3,1.6556999683380127 -3,0 C-3,-1.6556999683380127 -1.6556999683380127,-3 0,-3z"></path></g><g opacity="1" transform="matrix(-0.32889240980148315,-0.11970704793930054,0.11970704793930054,-0.32889240980148315,-2.3941409587860107,6.577848434448242)"><path fill="rgb(255,78,69)" fill-opacity="1" d=" M0,-3 C1.6556999683380127,-3 3,-1.6556999683380127 3,0 C3,1.6556999683380127 1.6556999683380127,3 0,3 C-1.6556999683380127,3 -3,1.6556999683380127 -3,0 C-3,-1.6556999683380127 -1.6556999683380127,-3 0,-3z"></path></g><g opacity="1" transform="matrix(-0.32889240980148315,0.11970704793930054,-0.11970704793930054,-0.32889240980148315,2.3941409587860107,6.577848434448242)"><path fill="rgb(255,78,69)" fill-opacity="1" d=" M0,-3 C1.6556999683380127,-3 3,-1.6556999683380127 3,0 C3,1.6556999683380127 1.6556999683380127,3 0,3 C-1.6556999683380127,3 -3,1.6556999683380127 -3,0 C-3,-1.6556999683380127 -1.6556999683380127,-3 0,-3z"></path></g><g opacity="1" transform="matrix(-0.17499999701976776,0.30310890078544617,-0.30310890078544617,-0.17499999701976776,6.062177658081055,3.5)"><path fill="rgb(255,78,69)" fill-opacity="1" d=" M0,-3 C1.6556999683380127,-3 3,-1.6556999683380127 3,0 C3,1.6556999683380127 1.6556999683380127,3 0,3 C-1.6556999683380127,3 -3,1.6556999683380127 -3,0 C-3,-1.6556999683380127 -1.6556999683380127,-3 0,-3z"></path></g><g opacity="1" transform="matrix(0.060776859521865845,0.3446826934814453,-0.3446826934814453,0.060776859521865845,6.8936543464660645,-1.215537190437317)"><path fill="rgb(255,78,69)" fill-opacity="1" d=" M0,-3 C1.6556999683380127,-3 3,-1.6556999683380127 3,0 C3,1.6556999683380127 1.6556999683380127,3 0,3 C-1.6556999683380127,3 -3,1.6556999683380127 -3,0 C-3,-1.6556999683380127 -1.6556999683380127,-3 0,-3z"></path></g><g opacity="1" transform="matrix(0.2681155502796173,0.22497566044330597,-0.22497566044330597,0.2681155502796173,4.499513149261475,-5.362310886383057)"><path fill="rgb(255,78,69)" fill-opacity="1" d=" M0,-3 C1.6556999683380127,-3 3,-1.6556999683380127 3,0 C3,1.6556999683380127 1.6556999683380127,3 0,3 C-1.6556999683380127,3 -3,1.6556999683380127 -3,0 C-3,-1.6556999683380127 -1.6556999683380127,-3 0,-3z"></path></g><g opacity="1" transform="matrix(0.3499999940395355,0,0,0.3499999940395355,0,-7)"><path fill="rgb(255,78,69)" fill-opacity="1" d=" M0,-3 C1.6556999683380127,-3 3,-1.6556999683380127 3,0 C3,1.6556999683380127 1.6556999683380127,3 0,3 C-1.6556999683380127,3 -3,1.6556999683380127 -3,0 C-3,-1.6556999683380127 -1.6556999683380127,-3 0,-3z"></path></g></g><g style="display: block;" transform="matrix(0.8660253882408142,-0.5,0.5,0.8660253882408142,59.2075309753418,70.43893432617188)" opacity="1"><g opacity="1" transform="matrix(1,0,0,1,0,0)"><path stroke-linecap="round" stroke-linejoin="miter" fill-opacity="0" stroke-miterlimit="4" stroke="rgb(229,229,44)" stroke-opacity="1" stroke-width="6" d="M0 0"></path></g></g></g><g clip-path="url(#__lottie_element_43)" style="display: block;" transform="matrix(1.0879924297332764,0,0,1.0879924297332764,69.95345306396484,67.94397735595703)" opacity="1"><g style="display: none;" transform="matrix(1,0,0,1,60,60)" opacity="1"><path fill="rgb(255,255,255)" fill-opacity="1" d=" M25.025999069213867,-4.00600004196167 C25.025999069213867,-4.00600004196167 5.992000102996826,-3.996999979019165 5.992000102996826,-3.996999979019165 C5.992000102996826,-3.996999979019165 11.012999534606934,-22.983999252319336 11.012999534606934,-22.983999252319336 C12.230999946594238,-26.90399932861328 13,-31.94300079345703 8.994000434875488,-31.981000900268555 C7,-32 5,-32 4.021999835968018,-31.007999420166016 C4.021999835968018,-31.007999420166016 -19.993000030517578,-5.03000020980835 -19.993000030517578,-5.03000020980835 C-19.993000030517578,-5.03000020980835 -20.027999877929688,32.025001525878906 -20.027999877929688,32.025001525878906 C-20.027999877929688,32.025001525878906 20.97599983215332,31.986000061035156 20.97599983215332,31.986000061035156 C25.010000228881836,31.986000061035156 26.198999404907227,29.562000274658203 26.99799919128418,25.985000610351562 C26.99799919128418,25.985000610351562 31.972000122070312,4.026000022888184 31.972000122070312,4.026000022888184 C33,-0.6930000185966492 30.392000198364258,-4.00600004196167 25.025999069213867,-4.00600004196167z"></path><path stroke-linecap="butt" stroke-linejoin="miter" fill-opacity="0" stroke-miterlimit="4" stroke="rgb(255,255,255)" stroke-opacity="1" stroke-width="4" d=" M25.025999069213867,-4.00600004196167 C25.025999069213867,-4.00600004196167 5.992000102996826,-3.996999979019165 5.992000102996826,-3.996999979019165 C5.992000102996826,-3.996999979019165 11.012999534606934,-22.983999252319336 11.012999534606934,-22.983999252319336 C12.230999946594238,-26.90399932861328 13,-31.94300079345703 8.994000434875488,-31.981000900268555 C7,-32 5,-32 4.021999835968018,-31.007999420166016 C4.021999835968018,-31.007999420166016 -19.993000030517578,-5.03000020980835 -19.993000030517578,-5.03000020980835 C-19.993000030517578,-5.03000020980835 -20.027999877929688,32.025001525878906 -20.027999877929688,32.025001525878906 C-20.027999877929688,32.025001525878906 20.97599983215332,31.986000061035156 20.97599983215332,31.986000061035156 C25.010000228881836,31.986000061035156 26.198999404907227,29.562000274658203 26.99799919128418,25.985000610351562 C26.99799919128418,25.985000610351562 31.972000122070312,4.026000022888184 31.972000122070312,4.026000022888184 C33,-0.6930000185966492 30.392000198364258,-4.00600004196167 25.025999069213867,-4.00600004196167z"></path></g><g style="display: block;" transform="matrix(1,0,0,1,60,60)" opacity="1"><path stroke-linecap="butt" stroke-linejoin="miter" fill-opacity="0" stroke-miterlimit="4" stroke="rgb(255,255,255)" stroke-opacity="1" stroke-width="4" d=" M25.025999069213867,-4.00600004196167 C25.025999069213867,-4.00600004196167 5.992000102996826,-3.996999979019165 5.992000102996826,-3.996999979019165 C5.992000102996826,-3.996999979019165 11.012999534606934,-22.983999252319336 11.012999534606934,-22.983999252319336 C12.230999946594238,-26.90399932861328 13,-31.94300079345703 8.994000434875488,-31.981000900268555 C7,-32 5,-32 4.021999835968018,-31.007999420166016 C4.021999835968018,-31.007999420166016 -19.993000030517578,-5.03000020980835 -19.993000030517578,-5.03000020980835 C-19.993000030517578,-5.03000020980835 -20.027999877929688,32.025001525878906 -20.027999877929688,32.025001525878906 C-20.027999877929688,32.025001525878906 20.97599983215332,31.986000061035156 20.97599983215332,31.986000061035156 C25.010000228881836,31.986000061035156 26.198999404907227,29.562000274658203 26.99799919128418,25.985000610351562 C26.99799919128418,25.985000610351562 31.972000122070312,4.026000022888184 31.972000122070312,4.026000022888184 C33,-0.6930000185966492 30.392000198364258,-4.00600004196167 25.025999069213867,-4.00600004196167z"></path></g><g style="display: none;" transform="matrix(1,0,0,1,60,60)" opacity="1"><path fill="rgb(255,255,255)" fill-opacity="1" d=" M-27.993000030517578,-4.015999794006348 C-27.993000030517578,-4.015999794006348 -36.02799987792969,-3.996999979019165 -36.02799987792969,-3.996999979019165 C-36.02799987792969,-3.996999979019165 -36,31.9950008392334 -36,31.9950008392334 C-36,31.9950008392334 -28.027999877929688,31.976999282836914 -28.027999877929688,31.976999282836914 C-28.027999877929688,31.976999282836914 -27.993000030517578,-4.015999794006348 -27.993000030517578,-4.015999794006348z"></path><path stroke-linecap="butt" stroke-linejoin="miter" fill-opacity="0" stroke-miterlimit="4" stroke="rgb(255,255,255)" stroke-opacity="1" stroke-width="4" d=" M-27.993000030517578,-4.015999794006348 C-27.993000030517578,-4.015999794006348 -36.02799987792969,-3.996999979019165 -36.02799987792969,-3.996999979019165 C-36.02799987792969,-3.996999979019165 -36,31.9950008392334 -36,31.9950008392334 C-36,31.9950008392334 -28.027999877929688,31.976999282836914 -28.027999877929688,31.976999282836914 C-28.027999877929688,31.976999282836914 -27.993000030517578,-4.015999794006348 -27.993000030517578,-4.015999794006348z"></path></g><g style="display: block;" transform="matrix(1,0,0,1,60,60)" opacity="1"><path stroke-linecap="butt" stroke-linejoin="miter" fill-opacity="0" stroke-miterlimit="4" stroke="rgb(255,255,255)" stroke-opacity="1" stroke-width="4" d=" M-19.986000061035156,-4.03000020980835 C-19.986000061035156,-4.03000020980835 -36.020999908447266,-3.996999979019165 -36.020999908447266,-3.996999979019165 C-36.020999908447266,-3.996999979019165 -36.00199890136719,31.993000030517578 -36.00199890136719,31.993000030517578 C-36.00199890136719,31.993000030517578 -20.030000686645508,32.02299880981445 -20.030000686645508,32.02299880981445 C-20.030000686645508,32.02299880981445 -19.986000061035156,-4.03000020980835 -19.986000061035156,-4.03000020980835z"></path></g></g></g></svg>